<svg id="Layer_1" data-name="Layer 1" xmlns="http://www.w3.org/2000/svg" width="287.99" height="287.99" viewBox="0 0 287.99 287.99">
  <defs>
    <style>
      .cls-1 {
        fill: #fff;
      }
    </style>
  </defs>
  <title>button</title>
  <path class="cls-1" d="M307.65,107c79.41.11,144,64.91,143.84,144.23s-65,144-144.33,143.75-143.7-64.85-143.65-144C163.55,171.55,228.3,106.89,307.65,107ZM187.5,250.88c-.07,66.07,53.71,120,119.79,120.12s120-53.6,120.21-119.71S373.76,131,307.51,131C241.43,131,187.57,184.79,187.5,250.88Z" transform="translate(-163.51 -107.01)"/>
  <path class="cls-1" d="M265.5,250.89c0-11.75,0-23.49,0-35.23,0-9.85,4.25-17.4,13.07-21.91s17.64-3.59,25.69,2.41c15.61,11.64,31.25,23.26,46.77,35,14.13,10.71,14,29-.18,39.77-15.34,11.6-30.76,23.08-46.13,34.63-8.14,6.11-16.91,7.32-26,2.73s-13.27-12.42-13.23-22.58C265.54,274.12,265.5,262.51,265.5,250.89Zm24.31,35.87L337.49,251l-47.68-35.73Z" transform="translate(-163.51 -107.01)"/>
</svg>
